<?xml version="1.0" standalone="no"?>
<!DOCTYPE svg PUBLIC "-//W3C//DTD SVG 20010904//EN"
 "http://www.w3.org/TR/2001/REC-SVG-20010904/DTD/svg10.dtd">
<svg version="1.0" xmlns="http://www.w3.org/2000/svg"
 width="690.000000pt" height="690.000000pt" viewBox="0 0 690.000000 690.000000"
 preserveAspectRatio="xMidYMid meet">
<metadata>
Created by potrace 1.14, written by Peter Selinger 2001-2017
</metadata>
<g transform="translate(0.000000,690.000000) scale(0.100000,-0.100000)"
fill="#000000" stroke="none">
<path d="M6109 3918 c-1 -21 -1 -901 0 -925 1 -22 5 -23 81 -23 l80 0 0 480 0
480 -80 0 c-57 0 -80 -4 -81 -12z"/>
<path d="M34 3857 l-29 -25 0 -431 0 -431 81 0 81 0 -1 260 c-1 143 1 260 4
260 3 0 68 -111 145 -247 77 -136 148 -255 158 -265 22 -23 81 -24 105 0 9 9
80 128 157 264 77 136 142 248 145 248 3 0 5 -117 4 -260 l0 -260 82 0 83 0 0
426 0 427 -29 28 c-16 17 -39 29 -53 29 -24 0 -87 -43 -87 -60 0 -4 -39 -74
-86 -156 -48 -82 -127 -220 -177 -307 -49 -87 -93 -154 -97 -150 -6 7 -169
289 -235 408 -133 235 -144 251 -191 261 -24 4 -37 0 -60 -19z"/>
<path d="M3572 3786 l3 -81 175 0 175 -1 3 -367 2 -367 80 0 80 0 0 365 c0
201 3 365 8 366 4 1 84 2 177 3 l170 1 3 81 3 80 -441 0 -441 0 3 -80z"/>
<path d="M1330 3569 l0 -79 193 0 c105 0 197 -4 203 -8 26 -17 32 -53 30 -184
-1 -116 -4 -140 -18 -155 -15 -14 -41 -17 -185 -18 -202 -2 -223 5 -223 71 0
60 20 67 200 68 l160 0 0 79 0 79 -182 -4 c-172 -3 -186 -4 -225 -27 -123 -70
-148 -250 -51 -354 53 -56 78 -62 287 -65 229 -4 265 3 327 62 56 55 64 89 64
282 0 180 -8 212 -63 265 -59 57 -82 62 -309 64 l-208 2 0 -78z"/>
<path d="M2203 3634 c-59 -20 -104 -57 -129 -106 -24 -46 -24 -53 -25 -290 0
-134 0 -249 0 -255 1 -9 24 -13 81 -13 l80 0 0 238 c0 228 1 240 20 257 19 17
41 19 211 19 132 1 192 5 197 13 6 10 7 33 3 129 -1 21 -5 21 -202 20 -126 0
-215 -5 -236 -12z"/>
<path d="M2893 3635 c-56 -17 -110 -61 -135 -109 -19 -36 -22 -61 -24 -191 -3
-188 6 -230 57 -289 62 -70 99 -78 336 -74 211 3 232 8 291 62 53 47 65 98 64
266 0 211 -23 272 -122 322 -42 21 -58 23 -236 24 -121 0 -206 -4 -231 -11z
m408 -174 c16 -20 19 -41 19 -155 0 -98 -4 -137 -14 -152 -13 -17 -29 -19
-190 -21 -233 -2 -220 -12 -220 175 1 149 6 168 47 174 12 2 93 3 181 3 153
-1 159 -2 177 -24z"/>
<path d="M4610 3630 c-31 -11 -64 -31 -84 -53 -50 -55 -62 -113 -60 -290 2
-171 13 -209 75 -261 57 -49 85 -54 268 -56 158 -1 171 1 172 17 1 10 1 45 2
78 l1 60 -164 0 c-210 1 -200 -7 -200 184 0 190 -11 181 215 181 162 0 177 -2
195 -20 24 -24 26 -67 4 -95 -14 -19 -27 -20 -179 -20 l-165 0 0 -77 0 -78 38
0 c195 -3 315 2 346 15 142 59 178 274 62 372 -61 51 -87 56 -288 58 -154 2
-196 -1 -238 -15z"/>
<path d="M5480 3640 c-82 -15 -140 -69 -165 -153 -11 -38 -14 -93 -12 -207 3
-170 9 -190 68 -248 55 -54 103 -62 366 -62 l233 0 0 80 0 80 -52 1 c-29 0
-133 0 -230 0 -235 0 -222 -10 -222 178 0 118 3 144 16 158 15 14 48 16 252
17 l236 1 0 81 0 81 -227 -1 c-126 0 -244 -3 -263 -6z"/>
<path d="M6509 3543 c-74 -59 -149 -121 -166 -139 -59 -60 -55 -68 143 -261
l176 -173 117 0 116 1 -190 185 c-116 112 -186 187 -179 192 13 8 82 63 98 77
6 6 63 52 127 102 64 51 122 99 128 107 10 12 -5 15 -112 15 l-124 1 -134
-107z"/>
</g>
</svg>
