<?xml version="1.0" standalone="no"?>
<!DOCTYPE svg PUBLIC "-//W3C//DTD SVG 20010904//EN"
 "http://www.w3.org/TR/2001/REC-SVG-20010904/DTD/svg10.dtd">
<svg version="1.0" xmlns="http://www.w3.org/2000/svg"
 width="205.000000pt" height="205.000000pt" viewBox="0 0 205.000000 205.000000"
 preserveAspectRatio="xMidYMid meet">
<metadata>
Created by potrace 1.14, written by Peter Selinger 2001-2017
</metadata>
<g transform="translate(0.000000,205.000000) scale(0.100000,-0.100000)"
fill="#000000" stroke="none">
<path d="M34 1467 l-29 -25 0 -431 0 -432 80 3 80 3 0 252 c1 139 3 254 6 257
2 3 67 -106 144 -241 77 -135 149 -254 159 -265 23 -21 74 -24 99 -5 9 6 51
73 93 147 77 136 93 164 146 255 16 28 36 65 45 83 9 17 19 32 22 32 3 0 6
-117 5 -260 l0 -260 82 0 82 0 1 420 c0 279 -3 429 -10 444 -12 25 -47 46 -78
46 -27 0 -66 -34 -89 -77 -11 -21 -86 -153 -167 -293 -81 -140 -153 -265 -160
-278 -7 -13 -17 -22 -21 -21 -5 2 -89 143 -187 314 -98 170 -186 318 -195 327
-30 31 -75 33 -108 5z"/>
<path d="M1175 1470 c-7 -12 -8 -140 -1 -147 4 -5 83 -9 174 -10 92 0 169 -1
172 -2 4 -1 6 -160 5 -353 0 -194 1 -359 3 -365 3 -9 29 -13 83 -13 l79 0 2
367 3 367 165 2 c91 0 170 2 176 2 7 1 11 29 10 80 l-1 77 -433 0 c-238 1
-435 -2 -437 -5z"/>
</g>
</svg>
